<?xml version="1.0" standalone="no"?>
<!DOCTYPE svg PUBLIC "-//W3C//DTD SVG 20010904//EN"
 "http://www.w3.org/TR/2001/REC-SVG-20010904/DTD/svg10.dtd">
<svg version="1.0" xmlns="http://www.w3.org/2000/svg"
 width="983.883837pt" height="1352.342504pt" viewBox="0 0 983.883837 1352.342504"
 preserveAspectRatio="xMidYMid meet">
<metadata>
Created by potrace 1.12, written by Peter Selinger 2001-2015
</metadata>
<g transform="translate(-469.081523,1660.842504) scale(0.100000,-0.100000)"
fill="#000000" stroke="none">
<path d="M9280 16603 c-642 -44 -1247 -206 -1825 -488 -509 -249 -943 -563
-1350 -977 -497 -504 -853 -1061 -1103 -1723 -611 -1621 -309 -3469 789 -4821
365 -449 791 -818 1304 -1129 200 -121 282 -183 386 -293 210 -222 318 -458
444 -972 51 -210 85 -342 131 -509 50 -178 172 -434 275 -577 l59 -82 0 -166
c0 -226 21 -280 135 -355 l40 -26 1040 0 c988 0 1042 1 1077 18 49 25 100 76
124 123 16 33 19 66 22 222 l4 183 50 67 c105 141 199 330 269 546 22 67 79
276 126 466 140 563 209 737 387 974 99 131 238 246 445 371 576 345 1065 785
1450 1305 915 1235 1202 2815 780 4291 -186 653 -509 1259 -960 1804 -106 129
-474 497 -604 604 -335 278 -639 475 -1025 663 -436 213 -859 346 -1351 427
-278 46 -486 61 -800 59 -151 -1 -294 -3 -319 -5z m685 -294 c577 -39 1179
-205 1711 -472 635 -319 1213 -800 1635 -1363 459 -614 752 -1303 874 -2059
64 -396 71 -899 19 -1303 -90 -700 -340 -1374 -728 -1962 -184 -279 -360 -495
-595 -731 -296 -295 -595 -526 -966 -743 -185 -109 -384 -284 -496 -436 -193
-262 -280 -482 -426 -1069 -119 -482 -189 -672 -316 -862 l-52 -79 -227 0
-228 0 0 348 c0 380 -4 412 -60 527 -16 33 -45 79 -64 102 l-36 41 0 806 c0
443 2 806 5 806 3 0 41 -20 83 -45 193 -114 423 -136 636 -63 198 69 385 252
457 450 21 56 22 57 68 64 120 16 215 49 316 108 298 175 436 555 324 889
l-20 60 59 61 c126 129 190 264 212 444 20 156 -17 332 -96 462 l-33 56 34 84
c80 202 60 411 -57 585 -53 81 -126 151 -199 192 l-47 27 -6 85 c-10 122 -31
203 -82 306 -117 241 -355 398 -637 421 l-85 7 -41 82 c-72 145 -206 260 -365
312 -101 33 -255 37 -351 9 -208 -61 -379 -231 -442 -442 -17 -56 -18 -213
-23 -2834 l-5 -2775 -105 0 -105 0 -5 2775 c-5 2621 -6 2778 -23 2834 -62 207
-220 368 -429 437 -49 17 -88 21 -173 21 -167 1 -284 -43 -417 -154 -53 -44
-137 -163 -163 -231 -15 -39 -20 -45 -41 -41 -47 8 -195 -17 -280 -47 -215
-78 -386 -255 -459 -473 -26 -76 -51 -245 -41 -271 3 -8 -27 -33 -75 -64 -128
-84 -225 -219 -263 -367 -20 -78 -21 -232 -1 -308 8 -32 27 -82 41 -112 l25
-54 -36 -61 c-119 -203 -132 -467 -34 -687 37 -81 79 -143 152 -218 l58 -62
-20 -60 c-44 -137 -50 -291 -16 -428 22 -85 96 -229 156 -302 116 -140 303
-240 500 -267 46 -6 47 -7 68 -63 45 -124 153 -268 259 -346 252 -184 599
-195 863 -26 25 17 49 30 52 30 4 0 7 -363 7 -806 l0 -806 -40 -48 c-47 -56
-93 -152 -109 -228 -7 -33 -11 -181 -11 -397 l0 -345 -225 0 -224 0 -52 76
c-71 106 -151 275 -199 423 -22 68 -76 270 -120 447 -118 477 -195 696 -319
907 -101 171 -267 357 -417 470 -38 29 -142 96 -230 149 -799 481 -1385 1111
-1795 1928 -252 503 -401 1014 -466 1590 -24 218 -24 745 0 955 109 940 448
1743 1046 2475 106 130 359 390 506 519 795 701 1802 1106 2860 1150 187 8
322 5 550 -10z m-1010 -4134 c124 -33 207 -117 240 -242 22 -84 22 -3462 0
-3566 -30 -141 -118 -253 -250 -318 -71 -35 -94 -42 -167 -46 -151 -10 -263
31 -364 132 -148 147 -184 347 -96 534 31 65 119 163 179 198 59 34 154 63
211 63 63 1 127 31 152 72 43 71 16 169 -57 203 -30 14 -54 17 -128 12 -316
-19 -602 -266 -672 -580 l-18 -79 -45 6 c-120 16 -261 127 -321 253 -75 158
-63 309 41 483 16 26 20 47 17 83 -5 54 -34 92 -103 133 -105 62 -192 194
-214 325 -31 184 71 393 236 481 273 146 601 2 679 -299 8 -31 15 -75 15 -98
0 -159 200 -214 273 -75 24 45 17 175 -14 276 -39 129 -95 220 -194 320 -76
77 -105 98 -185 137 -138 68 -200 82 -355 81 -154 0 -246 -24 -386 -101 -4 -2
-11 22 -17 54 -29 163 77 333 232 374 23 6 58 21 78 35 52 33 64 76 49 185
-22 168 26 308 143 416 73 68 157 109 253 123 74 12 93 9 93 -14 0 -29 43
-139 76 -196 104 -177 291 -293 494 -306 60 -4 82 -2 110 13 48 25 83 94 75
146 -11 77 -60 115 -168 128 -128 16 -230 88 -280 197 -33 73 -31 198 5 275
45 95 135 167 231 187 64 12 88 11 152 -5z m1480 0 c76 -24 151 -78 190 -140
19 -30 35 -56 35 -58 0 -2 -30 -22 -66 -43 -125 -73 -264 -238 -311 -370 -36
-98 -43 -135 -50 -234 -26 -406 283 -761 693 -797 126 -10 194 33 202 129 3
44 0 59 -20 88 -30 44 -80 70 -139 70 -102 0 -226 56 -310 139 -184 184 -185
469 -1 657 182 187 490 183 667 -8 67 -72 100 -135 122 -230 14 -62 14 -84 3
-167 -12 -88 -11 -100 5 -131 24 -47 50 -66 122 -90 130 -44 202 -126 233
-265 19 -85 -11 -187 -85 -289 -55 -76 -48 -125 30 -222 121 -148 144 -334 65
-503 -33 -70 -115 -161 -175 -197 -65 -38 -97 -77 -102 -127 -5 -38 0 -54 35
-118 77 -139 91 -281 42 -412 -54 -145 -205 -274 -342 -293 l-43 -6 -11 59
c-44 229 -227 454 -442 544 -94 39 -187 59 -277 59 -59 0 -76 -4 -107 -25 -60
-40 -75 -137 -33 -201 22 -34 89 -64 146 -64 191 -1 385 -167 428 -368 50
-236 -83 -462 -320 -543 -54 -18 -80 -20 -161 -17 -85 4 -105 9 -173 41 -142
68 -242 200 -265 352 -7 48 -10 609 -8 1800 3 1985 -8 1781 103 1892 50 50 73
65 126 82 77 24 128 26 194 6z m-707 -6079 c59 -30 105 -78 131 -136 19 -42
21 -65 21 -387 l0 -343 -270 0 -270 0 0 343 c0 338 0 343 24 392 26 57 99 127
148 142 18 6 64 11 101 12 53 1 78 -4 115 -23z m812 -1241 l0 -85 -930 0 -930
0 0 85 0 85 930 0 930 0 0 -85z"/>
<path d="M8473 4259 c-31 -15 -48 -33 -64 -65 -34 -72 -14 -143 54 -184 31
-19 59 -20 1148 -20 l1116 0 34 23 c95 63 89 191 -11 244 l-43 23 -1096 0
c-1090 0 -1096 0 -1138 -21z"/>
<path d="M8496 3780 c-93 -28 -134 -150 -75 -224 38 -48 67 -56 211 -56 l133
-1 100 -150 c104 -158 148 -203 231 -241 49 -23 52 -23 514 -23 l465 0 65 32
c83 41 103 62 219 235 l96 143 141 5 c155 6 178 14 214 73 38 62 17 143 -48
187 l-36 25 -1100 2 c-607 1 -1114 -2 -1130 -7z m1604 -287 c0 -5 -18 -33 -39
-63 l-38 -55 -411 -3 -411 -2 -40 57 c-23 31 -41 60 -41 65 0 4 221 8 490 8
270 0 490 -3 490 -7z"/>
</g>
</svg>
